# xmcd
#
# Track frame offsets: 
#        150
#        29425
#        55174
#        82651
#        114850
#        138203
#        169279
#        196907
#        231959
#        256653
#        280527
#        309054
#
# Disc length: 4473 seconds
#
# Revision: 0
# Processed by: cddbd v1.5.2PL0 Copyright (c) Steve Scherf et al.
# Submitted via: ExactAudioCopy v0.99pb3
#
DISCID=8911770c
DTITLE=Various Artist - Dj selection
DYEAR=1900
DGENRE=Alt. Rock
TTITLE0=ROBERT MILES feat MARIA NAYLER - One and one
TTITLE1=DJ DADO feat MICHELLE WEEKS - Forever
TTITLE2=BLACKWOOD - My love for you
TTITLE3=DOUBLE YOU - Loving you
TTITLE4=CHASE - Stay with me
TTITLE5=NEWMILL - As long as...
TTITLE6=DA BLITZ - Movin' on
TTITLE7=ALEXIA - Number one
TTITLE8=BASIC CONNECTION - Angel (don't cry)
TTITLE9=ALADINO - Stay with me
TTITLE10=BLISS TEAM - Hold on to love
TTITLE11=EXIT WAY - Flying in the space
EXTD=
EXTT0=
EXTT1=
EXTT2=
EXTT3=
EXTT4=
EXTT5=
EXTT6=
EXTT7=
EXTT8=
EXTT9=
EXTT10=
EXTT11=
PLAYORDER=
